<svg width="24" height="24" viewBox="0 0 24 24" fill="none" xmlns="http://www.w3.org/2000/svg">
<path d="M12.0001 21.65C17.3296 21.65 21.6501 17.3295 21.6501 12C21.6501 6.67043 17.3296 2.34998 12.0001 2.34998C6.67055 2.34998 2.3501 6.67043 2.3501 12C2.3501 17.3295 6.67055 21.65 12.0001 21.65Z" stroke="#1A1A1A" stroke-width="1.7"/>
<path d="M9.66406 8.57597C9.78595 8.24602 9.97859 7.94675 10.2285 7.69917C10.4783 7.45159 10.7793 7.26171 11.1104 7.14285C11.4415 7.024 11.7945 6.97905 12.1448 7.01117C12.4951 7.04328 12.8341 7.15169 13.138 7.32877C13.4419 7.50584 13.7034 7.7473 13.9041 8.03619C14.1047 8.32508 14.2397 8.6544 14.2996 9.00101C14.3594 9.34763 14.3427 9.70315 14.2505 10.0426C14.1584 10.3821 13.993 10.6972 13.7661 10.966L12.6911 12.07C12.3651 12.392 11.9261 12.83 11.9261 13.614V13.978" stroke="#1A1A1A" stroke-width="1.7" stroke-linecap="round"/>
<path d="M11.927 17.768C12.4152 17.768 12.811 17.3722 12.811 16.884C12.811 16.3958 12.4152 16 11.927 16C11.4387 16 11.043 16.3958 11.043 16.884C11.043 17.3722 11.4387 17.768 11.927 17.768Z" fill="#1A1A1A"/>
</svg>
