<svg width="18" height="16" viewBox="0 0 18 16" fill="none" xmlns="http://www.w3.org/2000/svg">
<path fill-rule="evenodd" clip-rule="evenodd" d="M5.44678 14.605L14.8028 9.20304C15.8028 8.62604 15.8028 7.18304 14.8028 6.60504L5.44678 1.20304C5.21868 1.07134 4.95992 1.00203 4.69654 1.00208C4.43315 1.00212 4.17442 1.07151 3.94636 1.20328C3.7183 1.33504 3.52896 1.52454 3.39738 1.7527C3.2658 1.98086 3.19661 2.23965 3.19678 2.50304V13.306C3.19661 13.5694 3.2658 13.8282 3.39738 14.0564C3.52896 14.2845 3.7183 14.474 3.94636 14.6058C4.17442 14.7376 4.43315 14.807 4.69654 14.807C4.95992 14.807 5.21868 14.7377 5.44678 14.606V14.605ZM7.39378 8.38704L3.19678 9.51204V6.29704L7.39378 7.42004C7.88778 7.55304 7.88778 8.25404 7.39378 8.38604V8.38704Z" fill="#2E5481"/>
</svg>
