<svg width="24" height="24" viewBox="0 0 24 24" fill="none" xmlns="http://www.w3.org/2000/svg">
<path fill-rule="evenodd" clip-rule="evenodd" d="M10.5 2.33497L3 7.50997C2.375 7.94697 2 8.62597 2 9.34997V19.7C2 20.965 3.125 22 4.5 22H19.5C20.875 22 22 20.965 22 19.7V9.34997C22 8.62597 21.625 7.94697 21 7.50997L13.5 2.33497C13.0565 2.03704 12.5343 1.87793 12 1.87793C11.4657 1.87793 10.9435 2.03704 10.5 2.33497V2.33497ZM7.316 14.366C7.23309 14.2895 7.1358 14.2303 7.02979 14.1918C6.92378 14.1534 6.81117 14.1364 6.69853 14.1418C6.58588 14.1473 6.47545 14.1751 6.37367 14.2237C6.27189 14.2723 6.1808 14.3406 6.10569 14.4248C6.03058 14.5089 5.97297 14.6071 5.9362 14.7137C5.89944 14.8204 5.88426 14.9332 5.89155 15.0458C5.89884 15.1583 5.92845 15.2683 5.97866 15.3693C6.02887 15.4702 6.09867 15.5602 6.184 15.634C7.78299 17.0649 9.85421 17.8548 12 17.852C14.233 17.852 16.272 17.012 17.816 15.634C17.9013 15.5602 17.9711 15.4702 18.0213 15.3693C18.0716 15.2683 18.1012 15.1583 18.1085 15.0458C18.1157 14.9332 18.1006 14.8204 18.0638 14.7137C18.027 14.6071 17.9694 14.5089 17.8943 14.4248C17.8192 14.3406 17.7281 14.2723 17.6263 14.2237C17.5245 14.1751 17.4141 14.1473 17.3015 14.1418C17.1888 14.1364 17.0762 14.1534 16.9702 14.1918C16.8642 14.2303 16.7669 14.2895 16.684 14.366C15.3964 15.5187 13.7282 16.1548 12 16.152C10.2 16.152 8.56 15.477 7.316 14.366V14.366Z" fill="#305786"/>
<mask id="mask0_1_1230" style="mask-type:alpha" maskUnits="userSpaceOnUse" x="2" y="1" width="20" height="21">
<path fill-rule="evenodd" clip-rule="evenodd" d="M10.5 2.33497L3 7.50997C2.375 7.94697 2 8.62597 2 9.34997V19.7C2 20.965 3.125 22 4.5 22H19.5C20.875 22 22 20.965 22 19.7V9.34997C22 8.62597 21.625 7.94697 21 7.50997L13.5 2.33497C13.0565 2.03704 12.5343 1.87793 12 1.87793C11.4657 1.87793 10.9435 2.03704 10.5 2.33497V2.33497ZM7.316 14.366C7.23309 14.2895 7.1358 14.2303 7.02979 14.1918C6.92378 14.1534 6.81117 14.1364 6.69853 14.1418C6.58588 14.1473 6.47545 14.1751 6.37367 14.2237C6.27189 14.2723 6.1808 14.3406 6.10569 14.4248C6.03058 14.5089 5.97297 14.6071 5.9362 14.7137C5.89944 14.8204 5.88426 14.9332 5.89155 15.0458C5.89884 15.1583 5.92845 15.2683 5.97866 15.3693C6.02887 15.4702 6.09867 15.5602 6.184 15.634C7.78299 17.0649 9.85421 17.8548 12 17.852C14.233 17.852 16.272 17.012 17.816 15.634C17.9013 15.5602 17.9711 15.4702 18.0213 15.3693C18.0716 15.2683 18.1012 15.1583 18.1085 15.0458C18.1157 14.9332 18.1006 14.8204 18.0638 14.7137C18.027 14.6071 17.9694 14.5089 17.8943 14.4248C17.8192 14.3406 17.7281 14.2723 17.6263 14.2237C17.5245 14.1751 17.4141 14.1473 17.3015 14.1418C17.1888 14.1364 17.0762 14.1534 16.9702 14.1918C16.8642 14.2303 16.7669 14.2895 16.684 14.366C15.3964 15.5187 13.7282 16.1548 12 16.152C10.2 16.152 8.56 15.477 7.316 14.366V14.366Z" fill="#0057FF"/>
</mask>
<g mask="url(#mask0_1_1230)">
<path d="M2.9998 7.50994L2.0348 6.10994L2.0248 6.11694L2.9998 7.50994ZM10.4998 2.33494L9.5378 0.933942L9.5348 0.935942L10.4998 2.33494ZM20.9998 7.50994L21.9738 6.11694L21.9648 6.11094L20.9998 7.50994ZM13.4998 2.33494L14.4658 0.934942L14.4618 0.933942L13.4998 2.33494ZM6.1158 14.4339L7.3838 15.5659L6.1158 14.4339ZM7.3158 14.3659L8.4488 13.0979L7.3158 14.3659ZM6.1838 15.6339L5.0498 16.9019L6.1828 15.6339H6.1838ZM17.8158 15.6339L18.9488 16.9019L17.8158 15.6339ZM17.8838 14.4339L16.6158 15.5659L17.8838 14.4339ZM16.6838 14.3659L15.5508 13.0979L16.6838 14.3659ZM3.9648 8.90994L11.4648 3.73494L9.5358 0.935942L2.0358 6.11094L3.9658 8.90894L3.9648 8.90994ZM3.6998 9.34994C3.6998 9.22994 3.7628 9.05094 3.9738 8.90294L2.0258 6.11694C0.986805 6.84294 0.299805 8.02194 0.299805 9.34994H3.6998V9.34994ZM3.6998 19.6999V9.34994H0.299805V19.6999H3.6998V19.6999ZM4.4998 20.2999C4.27366 20.3037 4.05428 20.2227 3.8848 20.0729C3.82942 20.0273 3.7843 19.9705 3.75242 19.9062C3.72054 19.8419 3.70261 19.7716 3.6998 19.6999H0.299805C0.299805 22.0349 2.3218 23.6999 4.4998 23.6999V20.2999ZM19.4998 20.2999H4.4998V23.6999H19.4998V20.2999ZM20.2998 19.6999C20.2998 19.8099 20.2528 19.9459 20.1148 20.0729C19.9453 20.2227 19.726 20.3037 19.4998 20.2999V23.6999C21.6778 23.6999 23.6998 22.0349 23.6998 19.6999H20.2998V19.6999ZM20.2998 9.34994V19.6999H23.6998V9.34994H20.2998ZM20.0258 8.90294C20.2368 9.05094 20.2998 9.22894 20.2998 9.34994H23.6998C23.6998 8.02194 23.0128 6.84294 21.9738 6.11694L20.0258 8.90294V8.90294ZM12.5338 3.73394L20.0338 8.90894L21.9648 6.11094L14.4648 0.935942L12.5348 3.73394H12.5338ZM11.4618 3.73594C11.6221 3.63232 11.8089 3.57719 11.9998 3.57719C12.1907 3.57719 12.3775 3.63232 12.5378 3.73594L14.4618 0.933942C13.7351 0.441697 12.8775 0.178589 11.9998 0.178589C11.1221 0.178589 10.2645 0.441697 9.5378 0.933942L11.4618 3.73594V3.73594ZM7.3838 15.5659C7.23368 15.7341 7.02292 15.8357 6.79788 15.8484C6.57285 15.8612 6.35196 15.784 6.1838 15.6339L8.4488 13.0979C7.94445 12.6476 7.28187 12.4159 6.60677 12.454C5.93167 12.4921 5.29933 12.7967 4.8488 13.3009L7.3838 15.5659V15.5659ZM7.3158 14.3659C7.6658 14.6789 7.6958 15.2159 7.3838 15.5659L4.8478 13.3009C4.39743 13.8053 4.16581 14.4679 4.20387 15.143C4.24194 15.8181 4.54658 16.4504 5.0508 16.9009L7.3158 14.3659V14.3659ZM11.9998 16.1519C10.1998 16.1519 8.5598 15.4769 7.3158 14.3659L5.0508 16.9019C6.96157 18.6112 9.4361 19.5549 11.9998 19.5519V16.1519ZM16.6838 14.3659C15.3962 15.5187 13.728 16.1548 11.9998 16.1519V19.5519C14.6668 19.5519 17.1048 18.5479 18.9488 16.9019L16.6838 14.3659V14.3659ZM16.6158 15.5659C16.4657 15.3978 16.3886 15.1769 16.4013 14.9519C16.4141 14.7268 16.5157 14.5161 16.6838 14.3659L18.9488 16.9019C19.453 16.4514 19.7577 15.8191 19.7957 15.144C19.8338 14.4689 19.6022 13.8063 19.1518 13.3019L16.6158 15.5659ZM17.8158 15.6339C17.6476 15.784 17.4268 15.8612 17.2017 15.8484C16.9767 15.8357 16.7659 15.7341 16.6158 15.5659L19.1518 13.3009C18.7013 12.7967 18.0689 12.4921 17.3938 12.454C16.7187 12.4159 16.0562 12.6476 15.5518 13.0979L17.8158 15.6339V15.6339ZM11.9998 17.8519C14.2328 17.8519 16.2718 17.0129 17.8158 15.6339L15.5508 13.0979C14.575 13.9723 13.3101 14.4546 11.9998 14.4519V17.8519ZM6.1838 15.6339C7.78279 17.0649 9.85401 17.8548 11.9998 17.8519V14.4519C10.6895 14.4546 9.42465 13.9723 8.4488 13.0979L6.1838 15.6339V15.6339Z" fill="#305786"/>
</g>
</svg>
