<svg width="24" height="24" viewBox="0 0 24 24" fill="none" xmlns="http://www.w3.org/2000/svg">
<mask id="mask0_1_1236" style="mask-type:alpha" maskUnits="userSpaceOnUse" x="2" y="2" width="20" height="21">
<path fill-rule="evenodd" clip-rule="evenodd" d="M19 2C19.7956 2 20.5587 2.31607 21.1213 2.87868C21.6839 3.44129 22 4.20435 22 5V20.806C22 22.141 20.387 22.811 19.441 21.868L15.56 18H5C4.20435 18 3.44129 17.6839 2.87868 17.1213C2.31607 16.5587 2 15.7956 2 15V5C2 4.20435 2.31607 3.44129 2.87868 2.87868C3.44129 2.31607 4.20435 2 5 2H19Z" fill="#1A1A1A"/>
</mask>
<g mask="url(#mask0_1_1236)">
<path d="M19.4408 21.868L20.6408 20.664L19.4408 21.868ZM15.5598 18V16.3H16.2618L16.7598 16.796L15.5598 18V18ZM20.2998 5.00005C20.2998 4.65527 20.1628 4.32461 19.919 4.08081C19.6752 3.83701 19.3446 3.70005 18.9998 3.70005V0.300049C20.2463 0.300049 21.4418 0.795226 22.3232 1.67665C23.2046 2.55807 23.6998 3.75353 23.6998 5.00005H20.2998ZM20.2998 13.956V5.00005H23.6998V13.956H20.2998ZM20.2998 16.5V13.956H23.6998V16.5H20.2998ZM20.2998 20.806V16.5H23.6998V20.806H20.2998ZM20.6408 20.664C20.6111 20.6391 20.5755 20.622 20.5373 20.6145C20.4992 20.607 20.4598 20.6092 20.4228 20.621C20.3882 20.6388 20.3588 20.6652 20.3372 20.6976C20.3157 20.7299 20.3028 20.7673 20.2998 20.806H23.6998C23.6998 23.654 20.2588 25.083 18.2408 23.073L20.6408 20.664V20.664ZM16.7588 16.796L20.6408 20.664L18.2408 23.073L14.3588 19.2041L16.7588 16.796V16.796ZM4.9998 16.3H15.5588V19.7001H4.9998V16.3ZM3.6998 15C3.6998 15.3448 3.83677 15.6755 4.08057 15.9193C4.32436 16.1631 4.65502 16.3 4.9998 16.3V19.7001C3.75329 19.7001 2.55782 19.2049 1.6764 18.3235C0.794982 17.442 0.299805 16.2466 0.299805 15H3.6998V15ZM3.6998 5.00005V15H0.299805V5.00005H3.6998V5.00005ZM4.9998 3.70005C4.65502 3.70005 4.32436 3.83701 4.08057 4.08081C3.83677 4.32461 3.6998 4.65527 3.6998 5.00005H0.299805C0.299805 3.75353 0.794982 2.55807 1.6764 1.67665C2.55782 0.795226 3.75329 0.300049 4.9998 0.300049V3.70005V3.70005ZM18.9998 3.70005H4.9998V0.300049H18.9998V3.70005V3.70005Z" fill="#305786"/>
</g>
<path fill-rule="evenodd" clip-rule="evenodd" d="M16.9999 7C17.2253 7 17.4415 7.08955 17.6009 7.24896C17.7603 7.40836 17.8499 7.62457 17.8499 7.85C17.8499 8.07543 17.7603 8.29164 17.6009 8.45104C17.4415 8.61045 17.2253 8.7 16.9999 8.7H6.9999C6.88828 8.7 6.77775 8.67801 6.67462 8.6353C6.57149 8.59258 6.47779 8.52997 6.39886 8.45104C6.31993 8.37211 6.25732 8.27841 6.2146 8.17528C6.17189 8.07215 6.1499 7.96162 6.1499 7.85C6.1499 7.73838 6.17189 7.62785 6.2146 7.52472C6.25732 7.42159 6.31993 7.32789 6.39886 7.24896C6.47779 7.17003 6.57149 7.10742 6.67462 7.0647C6.77775 7.02199 6.88828 7 6.9999 7H16.9999ZM11.9999 11C12.2253 11 12.4415 11.0896 12.6009 11.249C12.7603 11.4084 12.8499 11.6246 12.8499 11.85C12.8499 12.0754 12.7603 12.2916 12.6009 12.451C12.4415 12.6104 12.2253 12.7 11.9999 12.7H6.9999C6.77447 12.7 6.55827 12.6104 6.39886 12.451C6.23946 12.2916 6.1499 12.0754 6.1499 11.85C6.1499 11.6246 6.23946 11.4084 6.39886 11.249C6.55827 11.0896 6.77447 11 6.9999 11H11.9999Z" fill="#305786"/>
</svg>
