<svg width="47" height="47" viewBox="0 0 47 47" fill="none" xmlns="http://www.w3.org/2000/svg">
<g id="Iconsax/Linear/message">
<path id="Vector" d="M16.6459 37.2083H15.6667C7.83341 37.2083 3.91675 35.25 3.91675 25.4583V15.6667C3.91675 7.83332 7.83341 3.91666 15.6667 3.91666H31.3334C39.1667 3.91666 43.0834 7.83332 43.0834 15.6667V25.4583C43.0834 33.2917 39.1667 37.2083 31.3334 37.2083H30.3542C29.7472 37.2083 29.1597 37.5021 28.7876 37.9917L25.8501 41.9083C24.5576 43.6317 22.4426 43.6317 21.1501 41.9083L18.2126 37.9917C17.8992 37.5608 17.1747 37.2083 16.6459 37.2083Z" stroke="white" stroke-width="1.5" stroke-miterlimit="10" stroke-linecap="round" stroke-linejoin="round"/>
<path id="Vector_2" d="M31.3256 21.5417H31.3452M23.4903 21.5417H23.5099M15.657 21.5417H15.6726" stroke="white" stroke-width="2" stroke-linecap="round" stroke-linejoin="round"/>
</g>
</svg>
