<svg width="24" height="24" viewBox="0 0 24 24" fill="none" xmlns="http://www.w3.org/2000/svg">
<g clip-path="url(#clip0_1_1190)">
<path d="M20 4C20.6661 4.65104 21.1952 5.42884 21.5561 6.28756C21.9169 7.14628 22.1022 8.06855 22.101 9C22.101 10.959 21.297 12.73 20 14" stroke="#1A1A1A" stroke-width="1.7" stroke-linecap="round"/>
<mask id="mask0_1_1190" style="mask-type:alpha" maskUnits="userSpaceOnUse" x="-1" y="0" width="18" height="23">
<path fill-rule="evenodd" clip-rule="evenodd" d="M9.49991 14H10.2179L15.4489 17.452C15.5997 17.5515 15.7746 17.6084 15.9551 17.6165C16.1356 17.6246 16.3149 17.5836 16.4739 17.498C16.633 17.4124 16.7659 17.2852 16.8585 17.1301C16.9511 16.975 17 16.7977 16.9999 16.617V1.85799C16.9999 1.67748 16.951 1.50035 16.8584 1.34538C16.7659 1.19041 16.6331 1.06338 16.4742 0.977775C16.3153 0.892166 16.1361 0.851167 15.9558 0.859127C15.7755 0.867088 15.6007 0.923711 15.4499 1.02299L10.9369 3.99999H4.99991C3.84334 3.99911 2.72224 4.39921 1.82755 5.13213C0.932866 5.86506 0.319935 6.88549 0.093159 8.0196C-0.133617 9.15372 0.0397883 10.3314 0.583839 11.352C1.12789 12.3726 2.00894 13.1731 3.07691 13.617L5.04391 20.829C5.18852 21.3589 5.52057 21.8184 5.97837 22.122C6.43617 22.4256 6.98861 22.5528 7.53308 22.4798C8.07755 22.4069 8.57704 22.1388 8.93877 21.7254C9.3005 21.312 9.49989 20.7813 9.49991 20.232V14Z" fill="#1A1A1A"/>
</mask>
<g mask="url(#mask0_1_1190)">
<path d="M10.2178 14L11.1538 12.581L10.7278 12.301H10.2178V14ZM9.4998 14V12.3H7.7998V14H9.4998ZM15.4498 17.452L14.5128 18.872L15.4488 17.452H15.4498ZM15.4498 1.02296L14.5128 -0.396042L15.4488 1.02396L15.4498 1.02296ZM10.9368 3.99996V5.69996H11.4468L11.8728 5.41996L10.9378 3.99996H10.9368ZM3.0768 13.617L4.7168 13.17L4.49681 12.368L3.7308 12.048L3.0758 13.618L3.0768 13.617ZM5.04281 20.829L6.68281 20.382L5.04281 20.829ZM10.2168 12.3H9.4998V15.7H10.2178V12.3H10.2168ZM16.3848 16.033L11.1528 12.581L9.2798 15.42L14.5118 18.872L16.3848 16.034V16.033ZM15.2988 16.617C15.2989 16.4906 15.3332 16.3667 15.398 16.2583C15.4629 16.1499 15.5558 16.0611 15.667 16.0012C15.7783 15.9413 15.9036 15.9127 16.0298 15.9183C16.156 15.9239 16.2783 15.9635 16.3838 16.033L14.5118 18.871C16.3068 20.056 18.6988 18.768 18.6988 16.618H15.2988V16.617ZM15.2988 1.85796V16.618H18.6988V1.85696H15.2988V1.85796ZM16.3838 2.44196C16.2783 2.51143 16.156 2.55106 16.0298 2.55666C15.9036 2.56225 15.7783 2.53359 15.667 2.47373C15.5558 2.41386 15.4629 2.32501 15.398 2.21661C15.3332 2.1082 15.2989 1.98427 15.2988 1.85796H18.6988C18.6988 -0.292042 16.3068 -1.58004 14.5118 -0.396042L16.3848 2.44196H16.3838ZM11.8738 5.41896L16.3838 2.44196L14.5118 -0.396042L10.0008 2.58096L11.8728 5.41896H11.8738ZM4.9998 5.69996H10.9378V2.29996H4.9998V5.69996V5.69996ZM1.6998 8.99996C1.6998 8.12474 2.04748 7.28538 2.66635 6.66651C3.28522 6.04764 4.12459 5.69996 4.9998 5.69996V2.29996C1.2998 2.29996 -1.7002 5.29996 -1.7002 8.99996H1.6998V8.99996ZM3.7318 12.048C3.12998 11.7973 2.61583 11.3741 2.25421 10.8317C1.89258 10.2893 1.69967 9.65189 1.6998 8.99996H-1.7002C-1.70034 10.3229 -1.30889 11.6163 -0.57518 12.7171C0.158534 13.818 1.20168 14.677 2.4228 15.186L3.7318 12.048ZM6.6838 20.382L4.7178 13.17L1.4378 14.065L3.4038 21.276L6.6838 20.382V20.382ZM7.2318 20.8C7.10727 20.8 6.98618 20.7591 6.88716 20.6836C6.78814 20.608 6.71669 20.5021 6.6838 20.382L3.4038 21.276C3.63282 22.1157 4.13162 22.8569 4.82335 23.3853C5.51508 23.9137 6.36136 24.1999 7.2318 24.2V20.8V20.8ZM7.7998 20.232C7.7998 20.3826 7.73996 20.5271 7.63344 20.6336C7.52692 20.7401 7.38245 20.8 7.2318 20.8V24.2C8.28418 24.2 9.29346 23.7819 10.0376 23.0378C10.7817 22.2936 11.1998 21.2843 11.1998 20.232H7.7998ZM7.7998 14V20.232H11.1998V14H7.7998Z" fill="#1A1A1A"/>
</g>
</g>
<defs>
<clipPath id="clip0_1_1190">
<rect width="24" height="24" fill="white"/>
</clipPath>
</defs>
</svg>
